<svg xmlns="http://www.w3.org/2000/svg" width="690" height="940" viewBox="0 0 690 940">
<defs><radialGradient id="g" cx="0.5" cy="0.35" r="0.9"><stop offset="0" stop-color="#5b1f6e"/><stop offset="0.55" stop-color="#240a2e"/><stop offset="1" stop-color="#08030b"/></radialGradient>
<radialGradient id="e" cx="0.5" cy="0.5" r="0.5"><stop offset="0" stop-color="#ff5a5a"/><stop offset="1" stop-color="#ff5a5a" stop-opacity="0"/></radialGradient></defs>
<rect width="690" height="940" fill="url(#g)"/><g fill="#e8c8ff"><circle cx="89" cy="450" r="1.5" opacity="0.31"/><circle cx="374" cy="770" r="1.4" opacity="0.43"/><circle cx="46" cy="597" r="1.4" opacity="0.38"/><circle cx="575" cy="19" r="2.4" opacity="0.73"/><circle cx="614" cy="629" r="1.9" opacity="0.80"/><circle cx="190" cy="635" r="1.4" opacity="0.30"/><circle cx="84" cy="84" r="0.5" opacity="0.61"/><circle cx="82" cy="208" r="1.2" opacity="0.69"/><circle cx="169" cy="231" r="2.0" opacity="0.75"/><circle cx="470" cy="811" r="0.8" opacity="0.47"/><circle cx="377" cy="380" r="1.7" opacity="0.54"/><circle cx="380" cy="826" r="2.3" opacity="0.54"/><circle cx="247" cy="915" r="2.0" opacity="0.86"/><circle cx="165" cy="903" r="2.4" opacity="0.73"/><circle cx="392" cy="609" r="2.4" opacity="0.41"/><circle cx="332" cy="415" r="2.1" opacity="0.75"/><circle cx="477" cy="575" r="0.4" opacity="0.48"/><circle cx="524" cy="527" r="0.5" opacity="0.63"/><circle cx="640" cy="11" r="2.5" opacity="0.70"/><circle cx="378" cy="809" r="2.4" opacity="0.85"/><circle cx="38" cy="709" r="1.2" opacity="0.72"/><circle cx="61" cy="387" r="0.6" opacity="0.48"/><circle cx="255" cy="296" r="1.3" opacity="0.31"/><circle cx="274" cy="392" r="2.2" opacity="0.79"/><circle cx="36" cy="416" r="1.7" opacity="0.68"/><circle cx="93" cy="110" r="1.3" opacity="0.33"/><circle cx="191" cy="624" r="0.8" opacity="0.88"/><circle cx="611" cy="526" r="0.7" opacity="0.55"/><circle cx="484" cy="267" r="1.4" opacity="0.49"/><circle cx="269" cy="184" r="0.4" opacity="0.43"/><circle cx="430" cy="616" r="0.5" opacity="0.86"/><circle cx="60" cy="102" r="2.0" opacity="0.71"/><circle cx="469" cy="544" r="2.5" opacity="0.34"/><circle cx="168" cy="156" r="1.2" opacity="0.50"/><circle cx="139" cy="30" r="0.7" opacity="0.61"/><circle cx="670" cy="144" r="1.5" opacity="0.68"/><circle cx="88" cy="863" r="1.9" opacity="0.73"/><circle cx="647" cy="650" r="0.7" opacity="0.53"/><circle cx="308" cy="259" r="0.7" opacity="0.54"/><circle cx="546" cy="604" r="1.9" opacity="0.79"/><circle cx="588" cy="505" r="0.4" opacity="0.51"/><circle cx="662" cy="626" r="2.0" opacity="0.80"/><circle cx="277" cy="722" r="1.2" opacity="0.62"/><circle cx="10" cy="526" r="0.4" opacity="0.61"/><circle cx="338" cy="364" r="0.7" opacity="0.60"/><circle cx="128" cy="498" r="0.6" opacity="0.31"/><circle cx="531" cy="529" r="2.2" opacity="0.81"/><circle cx="462" cy="698" r="2.2" opacity="0.53"/><circle cx="625" cy="352" r="1.2" opacity="0.32"/><circle cx="56" cy="94" r="0.5" opacity="0.65"/><circle cx="467" cy="189" r="0.4" opacity="0.32"/><circle cx="477" cy="910" r="2.4" opacity="0.79"/><circle cx="652" cy="692" r="1.6" opacity="0.67"/><circle cx="46" cy="337" r="1.4" opacity="0.62"/><circle cx="355" cy="558" r="1.8" opacity="0.60"/><circle cx="501" cy="320" r="2.3" opacity="0.31"/><circle cx="28" cy="628" r="2.6" opacity="0.42"/><circle cx="6" cy="203" r="0.5" opacity="0.57"/><circle cx="465" cy="579" r="1.3" opacity="0.81"/><circle cx="26" cy="785" r="2.3" opacity="0.57"/></g>
<path d="M200 560 C180 380 250 220 345 200 C440 220 510 380 490 560 C450 520 420 590 390 540 C370 600 320 600 300 540 C270 590 240 520 200 560 Z" fill="#1a0820" stroke="#b36bd1" stroke-width="5" opacity="0.95"/>
<circle cx="305" cy="330" r="30" fill="url(#e)"/><circle cx="385" cy="330" r="30" fill="url(#e)"/>
<circle cx="305" cy="330" r="9" fill="#ffd0d0"/><circle cx="385" cy="330" r="9" fill="#ffd0d0"/></svg>
